<svg xmlns="http://www.w3.org/2000/svg" width="33" height="33" viewBox="0 0 33 32" fill="none">
  <circle cx="16.9746" cy="16" r="16" fill="#00C3FF"/>
  <path d="M25 9.0089C24.26 9.60653 23.4407 10.0636 22.5736 10.3626C22.1083 9.74989 21.4898 9.31563 20.8018 9.11854C20.1138 8.92145 19.3896 8.97103 18.7271 9.26057C18.0645 9.55011 17.4956 10.0656 17.0973 10.7375C16.699 11.4093 16.4905 12.2049 16.5 13.0168V13.9016C15.142 13.9419 13.7964 13.5971 12.5831 12.8978C11.3697 12.1985 10.3262 11.1665 9.54545 9.89365C9.54545 9.89365 6.45455 17.8564 13.4091 21.3954C11.8177 22.6323 9.92189 23.2525 8 23.165C14.9545 27.5887 23.4545 23.165 23.4545 12.9903C23.4538 12.7438 23.4331 12.498 23.3927 12.2559C24.1814 11.3654 24.7379 10.2411 25 9.0089Z" fill="white" stroke="white" stroke-width="0.5" stroke-linecap="round" stroke-linejoin="round"/>
</svg>