<svg xmlns="http://www.w3.org/2000/svg" width="33" height="33" viewBox="0 0 33 33" fill="none">
  <circle cx="16.9497" cy="16.0591" r="16" fill="#FF2E2E"/>
  <path d="M25.6232 12.1665C25.526 11.7416 25.3281 11.3523 25.0494 11.038C24.7707 10.7236 24.4211 10.4952 24.036 10.376C22.6288 10 17 10 17 10C17 10 11.3712 10 9.964 10.4118C9.57886 10.5311 9.22929 10.7594 8.95061 11.0738C8.67193 11.3882 8.474 11.7774 8.37681 12.2023C8.11927 13.765 7.9933 15.3503 8.00047 16.9382C7.99129 18.5381 8.11727 20.1355 8.37681 21.7099C8.48395 22.1216 8.68632 22.4961 8.96435 22.7972C9.24239 23.0983 9.58669 23.3159 9.964 23.4288C11.3712 23.8407 17 23.8407 17 23.8407C17 23.8407 22.6288 23.8407 24.036 23.4288C24.4211 23.3096 24.7707 23.0813 25.0494 22.7669C25.3281 22.4525 25.526 22.0632 25.6232 21.6383C25.8787 20.0874 26.0047 18.5142 25.9995 16.9382C26.0087 15.3384 25.8827 13.741 25.6232 12.1665Z" fill="white" stroke="white" stroke-linecap="round" stroke-linejoin="round"/>
  <path d="M15.1592 19.8662L19.8635 16.9387L15.1592 14.0112V19.8662Z" fill="#FF2E2E" stroke="#FF2E2E" stroke-linecap="round" stroke-linejoin="round"/>
</svg>